<svg aria-hidden="true" style="position:absolute;width:0;height:0;overflow:hidden" xmlns="http://www.w3.org/2000/svg"><defs><symbol id="icon-facebook" viewBox="0 0 32 32"><path d="M28 0H4C1.8 0 0 1.801 0 4v24c0 2.202 1.8 4 4 4h12.139V20.525h-3.834v-4.998h3.834v-2.504c0-3.861 2.848-6.884 6.485-6.884h3.533v5.643h-3.16c-.825 0-1.071.474-1.071 1.131v2.613h4.232v4.998h-4.232v11.475H28c2.202 0 4-1.798 4-4v-24c0-2.199-1.798-4-4-4z"/></symbol><symbol id="icon-twitter" viewBox="0 0 32 32"><path d="M32 6.633a13.156 13.156 0 0 1-3.771 1.033 6.585 6.585 0 0 0 2.886-3.63 13.086 13.086 0 0 1-4.167 1.591 6.565 6.565 0 0 0-4.793-2.071 6.564 6.564 0 0 0-6.394 8.061A18.648 18.648 0 0 1 2.229 4.758a6.533 6.533 0 0 0-.889 3.298 6.56 6.56 0 0 0 2.921 5.465 6.547 6.547 0 0 1-2.974-.82v.082a6.568 6.568 0 0 0 5.266 6.437 6.62 6.62 0 0 1-2.964.113 6.568 6.568 0 0 0 6.132 4.56 13.167 13.167 0 0 1-9.717 2.715 18.561 18.561 0 0 0 10.064 2.949c12.075 0 18.679-10.003 18.679-18.677 0-.286-.007-.571-.021-.852a13.243 13.243 0 0 0 3.276-3.396z"/></symbol><symbol id="icon-linkdin" viewBox="0 0 32 32"><path d="M7.247 3.42c0 1.89-1.395 3.42-3.691 3.42C1.395 6.842 0 5.312 0 3.42 0 1.485 1.44 0 3.646 0 5.85 0 7.202 1.485 7.247 3.42zM.181 31.552V9.542h6.84v22.009l-6.84.002zM11.115 16.564c0-2.746-.088-5.041-.179-7.021h5.941l.316 3.061h.134c.9-1.442 3.106-3.556 6.795-3.556 4.501-.002 7.877 3.014 7.877 9.496v13.007h-6.842V19.353c0-2.835-.988-4.77-3.465-4.77-1.892 0-3.016 1.304-3.509 2.566-.183.45-.226 1.08-.226 1.709v12.693h-6.842V16.564z"/></symbol></defs></svg>